<svg width="194" height="43" viewBox="0 0 194 43" fill="none" xmlns="http://www.w3.org/2000/svg">
<path d="M19.005 42.08C17.905 42.08 17.1717 41.7317 16.805 41.035C16.475 40.375 16.31 39.6417 16.31 38.835C16.31 37.8817 16.4933 36.7633 16.86 35.48C17.2633 34.16 17.7583 32.8217 18.345 31.465C18.9683 30.0717 19.5917 28.7517 20.215 27.505C20.875 26.2583 21.4433 25.2133 21.92 24.37C22.25 23.82 22.7817 22.9033 23.515 21.62C24.285 20.3 25.1283 18.815 26.045 17.165C26.9983 15.515 27.915 13.8833 28.795 12.27C29.675 10.62 30.39 9.17167 30.94 7.925C31.5267 6.67833 31.82 5.835 31.82 5.395C31.82 4.33166 31.435 3.59833 30.665 3.195C29.9317 2.79166 29.0333 2.59 27.97 2.59C26.2833 2.59 24.34 2.95666 22.14 3.69C19.94 4.38667 17.7033 5.34 15.43 6.55C13.1933 7.76 11.1033 9.15333 9.16 10.73C7.25333 12.27 5.71333 13.8833 4.54 15.57C3.36667 17.2567 2.78 18.9067 2.78 20.52C2.78 21.3267 3.01833 21.95 3.495 22.39C3.97167 22.7933 4.57667 23.0683 5.31 23.215C6.04333 23.325 6.795 23.38 7.565 23.38C8.40833 23.38 9.215 23.2883 9.985 23.105C10.7917 22.9217 11.5617 22.7017 12.295 22.445C12.3683 22.4083 12.4417 22.39 12.515 22.39C12.5883 22.3533 12.6617 22.335 12.735 22.335C13.3217 22.335 13.615 22.5917 13.615 23.105C13.615 23.435 13.34 23.7283 12.79 23.985C12.24 24.205 11.58 24.3883 10.81 24.535C10.0767 24.6817 9.36167 24.7917 8.665 24.865C7.96833 24.9383 7.47333 24.975 7.18 24.975C6.11667 24.975 5.07167 24.8467 4.045 24.59C3.055 24.2967 2.24833 23.8383 1.625 23.215C1.00167 22.555 0.69 21.675 0.69 20.575C0.69 19.475 0.983333 18.3383 1.57 17.165C2.12 15.9917 2.74333 14.9467 3.44 14.03C4.32 12.8567 5.43833 11.6833 6.795 10.51C8.18833 9.33667 9.655 8.23667 11.195 7.21C12.735 6.18333 14.1833 5.32167 15.54 4.625C16.6767 4.00167 17.96 3.415 19.39 2.865C20.8567 2.315 22.3417 1.875 23.845 1.545C25.3483 1.17833 26.7783 0.994998 28.135 0.994998C29.7483 0.994998 31.0683 1.325 32.095 1.985C33.1217 2.645 33.635 3.745 33.635 5.285V5.395C33.635 5.98167 33.3417 6.935 32.755 8.255C32.205 9.53833 31.49 11.005 30.61 12.655C29.7667 14.305 28.8683 15.9733 27.915 17.66C26.9617 19.31 26.0817 20.8133 25.275 22.17C24.505 23.49 23.9367 24.4617 23.57 25.085C23.13 25.7817 22.5983 26.735 21.975 27.945C21.3883 29.1183 20.8017 30.3833 20.215 31.74C19.6283 33.0967 19.1333 34.3983 18.73 35.645C18.3633 36.855 18.18 37.845 18.18 38.615C18.18 39.0183 18.2717 39.4033 18.455 39.77C18.6383 40.1733 19.0233 40.375 19.61 40.375C20.5633 40.375 21.7367 39.9167 23.13 39C24.5233 38.12 25.99 37.0017 27.53 35.645C29.1067 34.2517 30.6283 32.8033 32.095 31.3C33.5617 29.76 34.8633 28.3483 36 27.065C37.1733 25.7817 38.0167 24.81 38.53 24.15C38.6767 23.5267 38.915 22.72 39.245 21.73C39.6117 20.7033 40.0517 19.6217 40.565 18.485C41.115 17.3483 41.72 16.285 42.38 15.295C43.0767 14.2683 43.81 13.4433 44.58 12.82C45.35 12.16 46.1567 11.83 47 11.83C47.2933 11.83 47.605 11.9033 47.935 12.05C48.265 12.16 48.43 12.38 48.43 12.71C48.43 12.8567 48.4117 12.9667 48.375 13.04C47.3483 15.0933 46.12 17.11 44.69 19.09C43.26 21.07 41.7933 22.9767 40.29 24.81C40.1433 25.6167 40.015 26.4233 39.905 27.23C39.8317 28.0367 39.795 28.8617 39.795 29.705C39.795 30.8783 39.9417 32.0333 40.235 33.17C40.5283 34.27 41.0967 35.1867 41.94 35.92C42.7833 36.6533 44.03 37.02 45.68 37.02C47.5867 37.02 49.4017 36.5433 51.125 35.59C52.8483 34.6 54.2967 33.4817 55.47 32.235C56.9733 30.695 58.3117 28.8983 59.485 26.845C60.695 24.7917 61.6483 22.665 62.345 20.465C63.0783 18.2283 63.445 16.1017 63.445 14.085C63.445 12.9483 63.2983 11.9217 63.005 11.005C62.7117 10.0883 61.9967 9.28166 60.86 8.585C60.5667 8.40167 60.42 8.18167 60.42 7.925C60.42 7.74166 60.4933 7.55833 60.64 7.375C60.8233 7.19166 61.0433 7.1 61.3 7.1C61.4467 7.1 61.5933 7.13666 61.74 7.21C63.1333 7.87 64.0683 8.82333 64.545 10.07C65.0217 11.3167 65.26 12.5817 65.26 13.865C65.26 15.5517 64.9483 17.495 64.325 19.695C63.7383 21.8583 62.8583 24.0583 61.685 26.295C60.5483 28.495 59.1733 30.53 57.56 32.4C55.9467 34.27 54.1133 35.7917 52.06 36.965C50.0433 38.1017 47.8617 38.67 45.515 38.67C43.7917 38.67 42.4167 38.3033 41.39 37.57C40.3633 36.8367 39.5933 35.8833 39.08 34.71C38.6033 33.5367 38.2917 32.3083 38.145 31.025C38.035 29.705 37.9983 28.4767 38.035 27.34C37.4117 28.0733 36.5317 29.045 35.395 30.255C34.295 31.465 33.03 32.7483 31.6 34.105C30.2067 35.4617 28.7583 36.745 27.255 37.955C25.7517 39.165 24.285 40.155 22.855 40.925C21.4617 41.695 20.1783 42.08 19.005 42.08ZM69.7554 42.025C68.0321 42.025 66.4554 41.805 65.0254 41.365C63.5954 40.9617 62.4587 40.265 61.6154 39.275C60.7721 38.3217 60.3504 37.0017 60.3504 35.315C60.3504 33.885 60.7171 32.5283 61.4504 31.245C62.1837 29.9617 63.1737 28.825 64.4204 27.835C65.6671 26.845 67.0421 26.1117 68.5454 25.635C69.1321 25.4517 69.7921 25.2867 70.5254 25.14C71.2954 24.9567 71.9737 24.865 72.5604 24.865C73.1471 24.865 73.4404 25.14 73.4404 25.69C73.4404 26.0933 73.2021 26.35 72.7254 26.46C72.1387 26.6067 71.5337 26.7167 70.9104 26.79C70.3237 26.8267 69.7187 26.9367 69.0954 27.12C67.8487 27.5233 66.6754 28.1467 65.5754 28.99C64.5121 29.7967 63.6504 30.75 62.9904 31.85C62.3671 32.9133 62.0554 34.05 62.0554 35.26C62.0554 36.6167 62.4221 37.68 63.1554 38.45C63.8887 39.22 64.8421 39.77 66.0154 40.1C67.1887 40.43 68.4537 40.595 69.8104 40.595C71.7171 40.595 73.8254 40.3383 76.1354 39.825C78.4821 39.3483 80.8471 38.6517 83.2304 37.735C85.6137 36.8183 87.8687 35.7367 89.9954 34.49C92.1221 33.2433 93.9554 31.8683 95.4954 30.365C97.0354 28.8617 98.0987 27.2667 98.6854 25.58C98.7954 25.2867 98.8871 24.975 98.9604 24.645C99.0337 24.315 99.0704 23.985 99.0704 23.655C99.0704 22.6283 98.7954 21.84 98.2454 21.29C97.7321 20.7033 97.0354 20.2817 96.1554 20.025C95.3121 19.7317 94.3954 19.5483 93.4054 19.475C92.4521 19.4017 91.5354 19.365 90.6554 19.365C88.7487 19.365 86.8237 19.4567 84.8804 19.64C82.9737 19.7867 81.0487 19.86 79.1054 19.86C78.0054 19.86 76.8504 19.7683 75.6404 19.585C74.4304 19.4017 73.4037 19.0167 72.5604 18.43C71.7537 17.8433 71.3504 16.945 71.3504 15.735C71.3504 14.1583 71.8454 12.765 72.8354 11.555C73.8254 10.345 75.1271 9.3 76.7404 8.42C78.3904 7.54 80.1687 6.825 82.0754 6.275C84.0187 5.68833 85.9254 5.26667 87.7954 5.01C89.6654 4.75333 91.3337 4.625 92.8004 4.625C93.6437 4.625 94.6154 4.68 95.7154 4.79C96.8154 4.86333 97.8787 5.04667 98.9054 5.34C99.9687 5.63333 100.83 6.09167 101.49 6.715C102.187 7.30166 102.535 8.09 102.535 9.08C102.535 9.88667 102.334 10.4733 101.93 10.84C101.527 11.2067 100.995 11.6283 100.335 12.105C100.262 12.1417 100.17 12.1967 100.06 12.27C99.9871 12.3067 99.8771 12.325 99.7304 12.325C99.5104 12.325 99.2904 12.2517 99.0704 12.105C98.8871 11.9217 98.7954 11.72 98.7954 11.5C98.7954 11.17 98.9604 10.9317 99.2904 10.785C99.6204 10.6383 99.9321 10.455 100.225 10.235C100.555 10.015 100.72 9.63 100.72 9.08C100.72 8.42 100.409 7.90666 99.7854 7.54C99.1987 7.13667 98.4471 6.84333 97.5304 6.66C96.6504 6.47666 95.7704 6.36666 94.8904 6.33C94.0471 6.25667 93.3504 6.22 92.8004 6.22C91.5904 6.22 90.1971 6.33 88.6204 6.55C87.0437 6.73333 85.4121 7.045 83.7254 7.485C82.0754 7.88833 80.4987 8.42 78.9954 9.08C77.5287 9.74 76.2821 10.5467 75.2554 11.5C74.2654 12.4167 73.6237 13.4983 73.3304 14.745C73.2937 14.8917 73.2571 15.0383 73.2204 15.185C73.2204 15.295 73.2204 15.4233 73.2204 15.57C73.2204 16.45 73.5687 17.0917 74.2654 17.495C74.9621 17.8617 75.7871 18.0817 76.7404 18.155C77.6937 18.2283 78.5371 18.265 79.2704 18.265C81.2137 18.265 83.1387 18.1917 85.0454 18.045C86.9521 17.8983 88.8587 17.825 90.7654 17.825C91.9021 17.825 93.0571 17.8983 94.2304 18.045C95.4404 18.155 96.5404 18.4117 97.5304 18.815C98.5571 19.1817 99.3821 19.75 100.005 20.52C100.629 21.2533 100.94 22.2433 100.94 23.49C100.94 24.2967 100.775 25.1217 100.445 25.965C99.7854 27.835 98.6487 29.595 97.0354 31.245C95.4221 32.8583 93.4971 34.325 91.2604 35.645C89.0237 36.965 86.6404 38.1017 84.1104 39.055C81.6171 40.0083 79.1237 40.7417 76.6304 41.255C74.1737 41.7683 71.8821 42.025 69.7554 42.025ZM102.599 39.22C101.389 39.22 100.545 38.9083 100.069 38.285C99.6286 37.625 99.4086 36.8367 99.4086 35.92C99.4086 35.04 99.5552 34.1233 99.8486 33.17C100.142 32.2167 100.454 31.3367 100.784 30.53C101.15 29.6867 101.444 29.0633 101.664 28.66C102.324 27.5233 103.057 26.4233 103.864 25.36C104.707 24.2967 105.605 23.3617 106.559 22.555C107.512 21.7117 108.484 21.07 109.474 20.63C110.5 20.1533 111.527 19.915 112.554 19.915C114.314 19.915 115.56 20.3917 116.294 21.345C117.027 22.2617 117.394 23.2517 117.394 24.315C117.394 24.6817 117.339 25.0667 117.229 25.47C117.082 26.02 116.899 26.4967 116.679 26.9C116.495 27.3033 116.257 27.505 115.964 27.505C115.707 27.505 115.469 27.3767 115.249 27.12C115.029 26.8633 114.955 26.6067 115.029 26.35C115.102 26.0933 115.194 25.8367 115.304 25.58C115.45 25.3233 115.542 25.0667 115.579 24.81C115.615 24.6267 115.634 24.4617 115.634 24.315C115.67 24.1683 115.689 24.0217 115.689 23.875C115.689 22.885 115.359 22.2067 114.699 21.84C114.075 21.4367 113.397 21.235 112.664 21.235C111.82 21.235 110.94 21.4733 110.024 21.95C109.144 22.4267 108.374 22.9767 107.714 23.6C106.907 24.4067 106.1 25.3417 105.294 26.405C104.487 27.4683 103.79 28.55 103.204 29.65C103.13 29.8333 102.929 30.2733 102.599 30.97C102.305 31.6667 102.012 32.455 101.719 33.335C101.462 34.1783 101.334 34.9667 101.334 35.7C101.334 36.2133 101.444 36.6533 101.664 37.02C101.92 37.3867 102.342 37.57 102.929 37.57C103.552 37.57 104.267 37.2767 105.074 36.69C105.917 36.1033 106.76 35.3883 107.604 34.545C108.484 33.665 109.272 32.8217 109.969 32.015C110.665 31.2083 111.179 30.585 111.509 30.145C111.729 29.8517 111.93 29.54 112.114 29.21C112.334 28.8433 112.554 28.5133 112.774 28.22C112.884 28.0733 113.104 28 113.434 28C113.727 28 114.02 28.0917 114.314 28.275C114.644 28.4217 114.772 28.6417 114.699 28.935C114.552 29.1917 114.277 29.76 113.874 30.64C113.507 31.4833 113.159 32.4183 112.829 33.445C112.499 34.435 112.334 35.315 112.334 36.085C112.334 37.0383 112.627 37.5883 113.214 37.735C113.617 37.8083 114.039 37.6617 114.479 37.295C114.955 36.9283 115.377 36.5067 115.744 36.03C116.147 35.5533 116.44 35.205 116.624 34.985C117.394 33.9583 118.109 32.9133 118.769 31.85C119.465 30.75 120.162 29.7233 120.859 28.77C121.079 28.4767 121.335 28.33 121.629 28.33C122.142 28.33 122.399 28.605 122.399 29.155C122.399 29.3383 122.16 29.815 121.684 30.585C121.207 31.3183 120.62 32.1617 119.924 33.115C119.264 34.0683 118.64 34.93 118.054 35.7C117.467 36.47 116.807 37.2217 116.074 37.955C115.34 38.6883 114.405 39.055 113.269 39.055C112.205 39.055 111.472 38.8167 111.069 38.34C110.702 37.8633 110.519 37.3317 110.519 36.745C110.519 36.2317 110.574 35.7 110.684 35.15C110.794 34.5633 110.904 34.0683 111.014 33.665L110.794 33.5C110.464 33.9033 109.969 34.4167 109.309 35.04C108.649 35.6633 107.915 36.305 107.109 36.965C106.302 37.5883 105.495 38.12 104.689 38.56C103.919 39 103.222 39.22 102.599 39.22ZM123.863 39.165C123.68 39.165 123.478 39.11 123.258 39C123.038 38.89 122.928 38.7433 122.928 38.56C122.928 38.2667 122.983 38.01 123.093 37.79C123.497 36.91 124.01 35.8283 124.633 34.545C125.293 33.2617 125.935 31.9417 126.558 30.585C127.218 29.1917 127.768 27.89 128.208 26.68C128.685 25.47 128.923 24.4983 128.923 23.765C128.923 23.545 128.868 23.3433 128.758 23.16C128.685 22.94 128.502 22.83 128.208 22.83C127.768 22.83 127.328 23.0133 126.888 23.38C126.485 23.7467 126.118 24.1683 125.788 24.645C125.458 25.085 125.183 25.4517 124.963 25.745C124.23 26.735 123.607 27.6517 123.093 28.495C122.58 29.3017 122.048 30.1083 121.498 30.915C120.985 31.685 120.343 32.5467 119.573 33.5C119.463 33.6467 119.335 33.775 119.188 33.885C119.078 33.9583 118.913 33.995 118.693 33.995C118.473 33.995 118.29 33.885 118.143 33.665C117.96 33.445 117.923 33.2433 118.033 33.06C118.84 31.7767 119.628 30.5667 120.398 29.43C121.168 28.2567 121.847 27.2483 122.433 26.405C123.02 25.5617 123.423 24.9933 123.643 24.7C124.267 23.8933 124.908 23.1233 125.568 22.39C126.265 21.6567 127.2 21.29 128.373 21.29C129.363 21.29 130.042 21.565 130.408 22.115C130.812 22.665 131.013 23.3067 131.013 24.04C131.013 25.36 130.463 27.065 129.363 29.155C130.72 27.725 132.168 26.4233 133.708 25.25C135.285 24.0767 136.752 23.105 138.108 22.335C139.465 21.5283 140.492 21.0333 141.188 20.85C141.518 20.74 141.848 20.6483 142.178 20.575C142.545 20.5017 142.875 20.465 143.168 20.465C143.535 20.465 143.828 20.5567 144.048 20.74C144.305 20.9233 144.433 21.2717 144.433 21.785C144.433 22.2983 144.103 23.0317 143.443 23.985C142.783 24.9017 141.977 25.965 141.023 27.175C140.107 28.3483 139.227 29.54 138.383 30.75C137.54 31.96 136.935 33.0967 136.568 34.16C136.458 34.4167 136.385 34.6733 136.348 34.93C136.312 35.15 136.293 35.3517 136.293 35.535C136.293 36.525 136.752 37.02 137.668 37.02C138.255 37.02 138.988 36.7267 139.868 36.14C140.382 35.81 140.877 35.4433 141.353 35.04C141.867 34.6 142.252 34.215 142.508 33.885C143.058 33.2617 143.498 32.73 143.828 32.29C144.195 31.85 144.543 31.3733 144.873 30.86C145.24 30.31 145.698 29.6317 146.248 28.825C146.358 28.6417 146.468 28.5133 146.578 28.44C146.688 28.3667 146.872 28.33 147.128 28.33C147.532 28.33 147.733 28.5867 147.733 29.1C147.733 29.32 147.568 29.705 147.238 30.255C146.908 30.7683 146.505 31.355 146.028 32.015C145.588 32.6383 145.148 33.225 144.708 33.775C144.305 34.2883 144.012 34.655 143.828 34.875C143.425 35.3517 142.912 35.8467 142.288 36.36C141.702 36.8733 141.097 37.3133 140.473 37.68C139.887 38.01 139.282 38.2483 138.658 38.395C138.035 38.5417 137.43 38.615 136.843 38.615C135.89 38.615 135.193 38.34 134.753 37.79C134.35 37.24 134.148 36.6533 134.148 36.03C134.148 35.0767 134.46 33.995 135.083 32.785C135.743 31.5383 136.513 30.31 137.393 29.1C138.31 27.8533 139.153 26.735 139.923 25.745C140.73 24.755 141.28 24.04 141.573 23.6C141.647 23.49 141.702 23.3983 141.738 23.325C141.775 23.215 141.793 23.1233 141.793 23.05C141.793 22.7567 141.573 22.61 141.133 22.61C140.913 22.61 140.657 22.665 140.363 22.775C138.86 23.3983 137.283 24.315 135.633 25.525C134.02 26.735 132.517 28.055 131.123 29.485C129.767 30.8783 128.685 32.1983 127.878 33.445L125.678 36.91C125.495 37.2033 125.33 37.515 125.183 37.845C125.037 38.1383 124.872 38.4317 124.688 38.725C124.468 39.0183 124.193 39.165 123.863 39.165ZM148.06 40.98C147.327 40.98 146.777 40.7417 146.41 40.265C146.043 39.825 145.805 39.2933 145.695 38.67C145.585 38.0467 145.53 37.4967 145.53 37.02C145.53 35.5167 145.805 33.83 146.355 31.96C146.905 30.09 147.547 28.22 148.28 26.35C149.05 24.48 149.747 22.8117 150.37 21.345C149.71 21.3817 148.977 21.4917 148.17 21.675C147.4 21.8583 146.703 21.95 146.08 21.95C145.567 21.95 145.31 21.73 145.31 21.29C145.31 20.6667 145.64 20.3 146.3 20.19C147.107 20.0067 147.932 19.86 148.775 19.75C149.618 19.64 150.443 19.5483 151.25 19.475C151.47 19.0717 151.782 18.4483 152.185 17.605C152.588 16.7617 153.047 15.8633 153.56 14.91C154.073 13.92 154.568 13.04 155.045 12.27C155.558 11.4633 155.98 10.895 156.31 10.565C156.53 10.345 156.768 10.235 157.025 10.235C157.282 10.235 157.502 10.3083 157.685 10.455C157.868 10.6017 157.96 10.785 157.96 11.005C157.96 11.115 157.905 11.2617 157.795 11.445C156.878 12.5817 156.108 13.8283 155.485 15.185C154.862 16.5417 154.238 17.8617 153.615 19.145C154.275 19.0717 154.972 18.9983 155.705 18.925C156.438 18.8517 157.153 18.815 157.85 18.815C158.07 18.815 158.272 18.8517 158.455 18.925C158.675 18.9983 158.785 19.1633 158.785 19.42C158.785 19.64 158.675 19.8233 158.455 19.97C158.272 20.1167 158.052 20.2267 157.795 20.3C156.988 20.4467 156.145 20.575 155.265 20.685C154.422 20.7583 153.578 20.85 152.735 20.96C152.258 22.06 151.708 23.2883 151.085 24.645C150.462 26.0017 149.857 27.4133 149.27 28.88C148.72 30.31 148.262 31.7033 147.895 33.06C147.528 34.4167 147.345 35.645 147.345 36.745C147.345 36.9283 147.345 37.24 147.345 37.68C147.382 38.0833 147.473 38.45 147.62 38.78C147.767 39.11 147.987 39.275 148.28 39.275C148.903 39.275 149.343 39.11 149.6 38.78C149.857 38.45 150.15 38.285 150.48 38.285C150.737 38.285 150.957 38.3583 151.14 38.505C151.36 38.6517 151.47 38.835 151.47 39.055C151.47 39.385 151.25 39.6967 150.81 39.99C150.407 40.2833 149.93 40.5217 149.38 40.705C148.83 40.8883 148.39 40.98 148.06 40.98ZM160.226 40.265C159.236 40.265 158.447 40.0083 157.861 39.495C157.274 38.9817 156.834 38.3583 156.541 37.625C156.284 36.855 156.156 36.14 156.156 35.48C156.156 34.6 156.321 33.6283 156.651 32.565C156.981 31.465 157.274 30.7133 157.531 30.31C157.531 30.2 157.512 30.09 157.476 29.98C157.476 29.8333 157.476 29.705 157.476 29.595C157.476 28.605 157.622 27.5783 157.916 26.515C158.246 25.2683 158.832 24.1317 159.676 23.105C160.519 22.0417 161.564 21.18 162.811 20.52C164.094 19.86 165.487 19.53 166.991 19.53C168.751 19.53 170.107 20.0067 171.061 20.96C172.014 21.8767 172.491 23.0867 172.491 24.59C172.491 26.68 172.106 28.4767 171.336 29.98C170.602 31.4833 169.814 32.9317 168.971 34.325C168.824 34.6183 168.696 34.8567 168.586 35.04C168.476 35.2233 168.586 35.315 168.916 35.315C169.979 35.315 171.024 34.875 172.051 33.995C173.077 33.115 174.379 31.4467 175.956 28.99C176.066 28.8067 176.176 28.66 176.286 28.55C176.396 28.44 176.561 28.385 176.781 28.385H176.891C177.294 28.385 177.532 28.6233 177.606 29.1C177.606 29.21 177.569 29.3383 177.496 29.485C176.579 31.0983 175.644 32.4917 174.691 33.665C173.774 34.8383 172.674 35.7367 171.391 36.36C170.107 36.9467 168.494 37.2583 166.551 37.295C165.781 38.0283 164.827 38.7067 163.691 39.33C162.591 39.9533 161.436 40.265 160.226 40.265ZM165.506 35.205H166.056C166.826 34.2883 167.559 33.2433 168.256 32.07C168.989 30.8967 169.576 29.6867 170.016 28.44C170.456 27.1567 170.676 25.9467 170.676 24.81C170.676 23.7467 170.401 22.8483 169.851 22.115C169.301 21.345 168.347 20.96 166.991 20.96C166.074 20.96 165.176 21.1617 164.296 21.565C163.452 21.9317 162.719 22.39 162.096 22.94L162.261 23.16C162.334 23.1233 162.444 23.105 162.591 23.105C162.811 23.105 163.012 23.1967 163.196 23.38C163.379 23.5267 163.471 23.6917 163.471 23.875C163.471 23.985 163.452 24.0767 163.416 24.15C163.379 24.2233 163.324 24.2967 163.251 24.37C162.627 25.2867 162.022 26.1483 161.436 26.955C160.849 27.7617 160.299 28.6783 159.786 29.705C159.676 29.9617 159.547 30.2183 159.401 30.475C159.694 31.8317 160.372 32.9683 161.436 33.885C162.536 34.765 163.892 35.205 165.506 35.205ZM160.556 38.725C161.289 38.725 162.022 38.505 162.756 38.065C163.489 37.5883 164.112 37.1483 164.626 36.745C161.839 36.4517 159.786 35.2233 158.466 33.06C158.429 33.3167 158.356 33.7017 158.246 34.215C158.136 34.7283 158.081 35.2417 158.081 35.755C158.081 36.4883 158.246 37.1667 158.576 37.79C158.906 38.4133 159.566 38.725 160.556 38.725ZM177.264 39.55C175.468 39.55 174.093 39.1833 173.139 38.45C172.186 37.7167 171.709 36.9467 171.709 36.14C171.709 35.5533 171.966 35.04 172.479 34.6C172.956 34.1233 173.781 33.885 174.954 33.885C175.688 33.885 176.568 33.995 177.594 34.215C178.364 34.3983 179.171 34.6367 180.014 34.93C180.894 35.2233 181.793 35.3517 182.709 35.315C182.966 34.9117 183.113 34.5817 183.149 34.325C183.186 34.0683 183.204 33.7567 183.204 33.39C183.204 32.18 183.003 31.1717 182.599 30.365C182.233 29.5583 181.793 28.77 181.279 28C180.803 27.23 180.399 26.295 180.069 25.195C179.593 26.0017 178.988 27.065 178.254 28.385C177.521 29.6683 176.311 31.4283 174.624 33.665C174.514 33.8483 174.294 33.94 173.964 33.94C173.414 33.94 173.139 33.7017 173.139 33.225C173.139 33.115 173.231 32.95 173.414 32.73C173.561 32.51 173.928 31.9417 174.514 31.025C175.174 29.9617 175.944 28.77 176.824 27.45C177.704 26.0933 178.548 24.6083 179.354 22.995C179.391 22.3717 179.519 21.7667 179.739 21.18C179.959 20.5933 180.216 20.0617 180.509 19.585C180.913 18.925 181.334 18.4483 181.774 18.155C182.214 17.825 182.618 17.66 182.984 17.66C183.681 17.66 184.029 18.0633 184.029 18.87C184.029 19.42 183.809 20.135 183.369 21.015C183.113 21.565 182.783 22.0417 182.379 22.445C181.976 22.8117 181.628 23.1417 181.334 23.435C181.408 24.3517 181.628 25.1767 181.994 25.91C182.361 26.6433 182.764 27.3583 183.204 28.055C183.681 28.7517 184.084 29.5033 184.414 30.31C184.744 31.1167 184.909 32.0883 184.909 33.225C184.909 33.9583 184.781 34.6367 184.524 35.26C185.331 35.2967 186.156 35.0033 186.999 34.38C187.879 33.72 188.704 32.8767 189.474 31.85C190.281 30.8233 190.996 29.7783 191.619 28.715C191.803 28.4583 192.041 28.33 192.334 28.33C192.518 28.33 192.701 28.385 192.884 28.495C193.068 28.605 193.159 28.7883 193.159 29.045C193.159 29.1917 193.104 29.375 192.994 29.595C191.931 31.5017 190.904 32.9867 189.914 34.05C188.961 35.0767 187.989 35.7917 186.999 36.195C186.009 36.5983 184.909 36.8367 183.699 36.91C182.783 37.7533 181.793 38.4133 180.729 38.89C179.703 39.33 178.548 39.55 177.264 39.55ZM176.989 38.23C177.833 38.23 178.566 38.1017 179.189 37.845C179.813 37.5883 180.491 37.2217 181.224 36.745C180.454 36.635 179.813 36.5067 179.299 36.36C178.786 36.1767 178.126 35.9933 177.319 35.81C176.293 35.59 175.486 35.48 174.899 35.48C173.836 35.48 173.304 35.7367 173.304 36.25C173.304 36.6533 173.653 37.0933 174.349 37.57C175.046 38.01 175.926 38.23 176.989 38.23Z" fill="black"/>
</svg>
